<svg width="25" height="23" viewBox="0 0 25 23" fill="none" xmlns="http://www.w3.org/2000/svg">
<path d="M10.7527 1.00879C11.529 -0.335808 13.4695 -0.335808 14.2458 1.00879L24.7263 19.1602C25.5026 20.5048 24.5319 22.1855 22.9792 22.1855H2.01929C0.466755 22.1855 -0.503089 20.5047 0.273193 19.1602L10.7527 1.00879ZM12.4998 15.25C11.6727 15.25 10.9998 16.0911 10.9998 17.125C10.9998 18.1589 11.6727 19 12.4998 19C13.3267 18.9998 13.9998 18.1588 13.9998 17.125C13.9998 16.0912 13.3267 15.2502 12.4998 15.25ZM11.6228 7C11.3654 7 11.1607 7.26952 11.1736 7.59082L11.4285 13.9658C11.4405 14.2651 11.638 14.5 11.8777 14.5H13.1218C13.3614 14.4998 13.559 14.2649 13.571 13.9658L13.8259 7.59082C13.8388 7.26962 13.6339 7.00018 13.3767 7H11.6228Z" fill="#A63F3F"/>
</svg>
