<svg viewBox="0 0 22 22" fill="none" xmlns="http://www.w3.org/2000/svg">
<path d="M20 11C20 6.02944 15.9706 2 11 2C6.02944 2 2 6.02944 2 11C2 15.9706 6.02944 20 11 20C15.9706 20 20 15.9706 20 11ZM22 11C22 17.0751 17.0751 22 11 22C4.92487 22 0 17.0751 0 11C0 4.92487 4.92487 0 11 0C17.0751 0 22 4.92487 22 11Z" fill="#3E3E3E"/>
<path d="M10 6C10 5.44772 10.4477 5 11 5C11.5523 5 12 5.44772 12 6V10.5859L14.707 13.293C15.0976 13.6835 15.0976 14.3165 14.707 14.707C14.3165 15.0976 13.6835 15.0976 13.293 14.707L10.293 11.707C10.1054 11.5195 10 11.2652 10 11V6Z" fill="#3E3E3E"/>
</svg>
