<svg width="25" height="25" viewBox="0 0 25 25" fill="none" xmlns="http://www.w3.org/2000/svg">
<path d="M12.5 0C19.4036 0 25 5.59644 25 12.5C25 19.4036 19.4036 25 12.5 25C5.59644 25 0 19.4036 0 12.5C0 5.59644 5.59644 0 12.5 0ZM17.0615 9.15723C16.8467 8.94776 16.498 8.94776 16.2832 9.15723L11.125 14.1875L8.7168 11.8389C8.50201 11.6294 8.15323 11.6294 7.93848 11.8389L7.16113 12.5977C6.94635 12.8071 6.94635 13.147 7.16113 13.3564L10.7363 16.8428C10.9511 17.0522 11.2989 17.0522 11.5137 16.8428L17.8389 10.6738C18.0534 10.4644 18.0534 10.1254 17.8389 9.91602L17.0615 9.15723Z" fill="#62A63F"/>
</svg>
