<svg width="25" height="25" viewBox="0 0 25 25" fill="none" xmlns="http://www.w3.org/2000/svg">
<path d="M12.5 0C19.4036 0 25 5.59644 25 12.5C25 19.4036 19.4036 25 12.5 25C5.59644 25 0 19.4036 0 12.5C0 5.59644 5.59644 0 12.5 0ZM12.5 15.25C11.6729 15.25 11 16.0911 11 17.125C11 18.1589 11.6729 19 12.5 19C13.3271 19 14 18.1589 14 17.125C14 16.0911 13.3271 15.25 12.5 15.25ZM11.623 7C11.3657 7.00001 11.161 7.26952 11.1738 7.59082L11.4287 13.9658C11.4408 14.265 11.6383 14.4999 11.8779 14.5H13.1221C13.3617 14.4999 13.5592 14.265 13.5713 13.9658L13.8262 7.59082C13.839 7.26952 13.6343 7.00001 13.377 7H11.623Z" fill="#EFC701"/>
</svg>
