<svg width="17" height="17" viewBox="0 0 17 17" fill="none" xmlns="http://www.w3.org/2000/svg">
<path d="M0 8.37111V1.59375C0 0.713535 0.713535 0 1.59375 0H8.37111C8.7938 2.21025e-06 9.19917 0.167916 9.49806 0.466803L16.5332 7.50195C17.1556 8.12434 17.1556 9.13345 16.5332 9.75585L9.75585 16.5332C9.13345 17.1556 8.12434 17.1556 7.50195 16.5332L0.466803 9.49806C0.167916 9.19917 2.21025e-06 8.7938 0 8.37111ZM3.71875 2.125C2.83854 2.125 2.125 2.83854 2.125 3.71875C2.125 4.59897 2.83854 5.3125 3.71875 5.3125C4.59897 5.3125 5.3125 4.59897 5.3125 3.71875C5.3125 2.83854 4.59897 2.125 3.71875 2.125Z" fill="#1BB4D4"/>
</svg>
