<svg width="25" height="25" viewBox="0 0 25 25" fill="none" xmlns="http://www.w3.org/2000/svg">
<path d="M12.5 0C19.4036 0 25 5.59644 25 12.5C25 19.4036 19.4036 25 12.5 25C5.59644 25 0 19.4036 0 12.5C0 5.59644 5.59644 0 12.5 0ZM10.4561 18.4238C10.4564 18.5956 10.5036 18.7641 10.5928 18.9072L11.0303 19.6094C11.1049 19.7295 11.2064 19.8284 11.3252 19.8965C11.4438 19.9644 11.5764 19.9999 11.7109 20H13.2891C13.4239 20 13.557 19.9646 13.6758 19.8965C13.7945 19.8284 13.8951 19.7294 13.9697 19.6094L14.4072 18.9072C14.4963 18.764 14.5437 18.5958 14.5439 18.4238L14.5449 17.375H10.4551L10.4561 18.4238ZM12.4863 6C9.87812 6.00848 8 8.26876 8 10.8125C8.00002 12.0257 8.42017 13.1328 9.11328 13.9785C9.53562 14.4939 10.1963 15.5702 10.4482 16.4785C10.4493 16.4856 10.4502 16.4929 10.4512 16.5H14.5488C14.5498 16.4929 14.5507 16.4859 14.5518 16.4785C14.8037 15.5702 15.4644 14.4939 15.8867 13.9785C16.5798 13.1328 17 12.0257 17 10.8125C17 8.14969 14.978 5.99202 12.4863 6ZM12.5 7.75C12.726 7.75 12.9092 7.94579 12.9092 8.1875C12.9092 8.4292 12.726 8.625 12.5 8.625C11.3722 8.625 10.4541 9.60639 10.4541 10.8125C10.4541 11.054 10.2717 11.2497 10.0459 11.25C9.8199 11.25 9.63676 11.0542 9.63672 10.8125C9.63672 9.12379 10.9209 7.75 12.5 7.75Z" fill="#3F84A6"/>
</svg>
