<svg viewBox="0 0 66 66" fill="none" xmlns="http://www.w3.org/2000/svg">
<path d="M33 66C28.4166 66 24.1242 65.1298 20.1227 63.3893C16.1211 61.6489 12.6378 59.2961 9.67266 56.331C6.70755 53.3659 4.35478 49.8826 2.61434 45.881C0.873893 41.8794 0.00244957 37.5858 5.1282e-06 33C-0.00243931 28.4142 0.869005 24.1218 2.61434 20.1227C4.35967 16.1236 6.71122 12.6402 9.669 9.67267C12.6268 6.70511 16.1101 4.35233 20.119 2.61433C24.1279 0.876334 28.4215 0.00488889 33 0C38.0111 0 42.7631 1.06944 47.256 3.20833C51.7488 5.34722 55.5524 8.37222 58.6666 12.2833V7.33333C58.6666 6.29444 59.0186 5.42422 59.7226 4.72267C60.4266 4.02111 61.2968 3.66911 62.3333 3.66667C63.3697 3.66422 64.2412 4.01622 64.9476 4.72267C65.6541 5.42911 66.0048 6.29933 65.9999 7.33333V22C65.9999 23.0389 65.6479 23.9103 64.9439 24.6143C64.2399 25.3183 63.3697 25.6691 62.3333 25.6667H47.6666C46.6277 25.6667 45.7575 25.3147 45.056 24.6107C44.3544 23.9067 44.0024 23.0364 44 22C43.9975 20.9636 44.3495 20.0933 45.056 19.3893C45.7624 18.6853 46.6326 18.3333 47.6666 18.3333H54.0833C51.5777 14.9111 48.4916 12.2222 44.825 10.2667C41.1583 8.31111 37.2166 7.33333 33 7.33333C25.85 7.33333 19.7853 9.82422 14.806 14.806C9.82666 19.7878 7.33578 25.8524 7.33333 33C7.33089 40.1476 9.82177 46.2134 14.806 51.1977C19.7902 56.1819 25.8549 58.6716 33 58.6667C38.8055 58.6667 44 56.925 48.5833 53.4417C53.1666 49.9583 56.1916 45.4667 57.6583 39.9667C57.9638 38.9889 58.5138 38.2556 59.3083 37.7667C60.1027 37.2778 60.9888 37.0944 61.9666 37.2167C63.0055 37.3389 63.8305 37.7813 64.4416 38.544C65.0527 39.3067 65.2361 40.1476 64.9916 41.0667C63.2194 48.3389 59.3694 54.3131 53.4416 58.9893C47.5138 63.6656 40.7 66.0024 33 66Z" fill="#3E3E3E"/>
</svg>
