<svg viewBox="0 0 22 16">
<path d="M21.5832 5.28333C21.7508 5.15417 22 5.275 22 5.47917V14C22 15.1042 21.0762 16 19.9375 16H2.0625C0.923828 16 0 15.1042 0 14V5.48333C0 5.275 0.244922 5.15833 0.416797 5.2875C1.3793 6.0125 2.65547 6.93333 7.03828 10.0208C7.94492 10.6625 9.47461 12.0125 11 12.0042C12.534 12.0167 14.0937 10.6375 14.966 10.0208C19.3488 6.93333 20.6207 6.00833 21.5832 5.28333ZM11 10.6667C11.9969 10.6833 13.432 9.45 14.1539 8.94167C19.8559 4.92917 20.2898 4.57917 21.6047 3.57917C21.8539 3.39167 22 3.1 22 2.79167V2C22 0.895833 21.0762 0 19.9375 0H2.0625C0.923828 0 0 0.895833 0 2V2.79167C0 3.1 0.146094 3.3875 0.395312 3.57917C1.71016 4.575 2.14414 4.92917 7.84609 8.94167C8.56797 9.45 10.0031 10.6833 11 10.6667Z" />
</svg>
