<svg width="25" height="25" viewBox="0 0 25 25" fill="none" xmlns="http://www.w3.org/2000/svg">
<path d="M12.5 0C19.4036 0 25 5.59644 25 12.5C25 19.4036 19.4036 25 12.5 25C5.59644 25 0 19.4036 0 12.5C0 5.59644 5.59644 0 12.5 0ZM7.27637 14.9736L7.00293 17.4268C6.96641 17.755 7.24404 18.0333 7.57227 17.9971L10.0244 17.7266L15.9971 11.7539L13.2461 9.00293L7.27637 14.9736ZM16.4062 7.30176C16.0034 6.89924 15.35 6.89908 14.9473 7.30176L13.7324 8.51758L16.4834 11.2676L17.6982 10.0527C18.1009 9.64976 18.1008 8.99657 17.6982 8.59375L16.4062 7.30176Z" fill="#A6843F"/>
</svg>
