<svg viewBox="0 0 25 20" fill="none" xmlns="http://www.w3.org/2000/svg">
  <path
    d="M3.90625 15.3846H0.78125C0.57405 15.3846 0.375336 15.4657 0.228823 15.6099C0.08231 15.7542 0 15.9498 0 16.1538L0 19.2308C0 19.4348 0.08231 19.6304 0.228823 19.7747C0.375336 19.919 0.57405 20 0.78125 20H3.90625C4.11345 20 4.31216 19.919 4.45868 19.7747C4.60519 19.6304 4.6875 19.4348 4.6875 19.2308V16.1538C4.6875 15.9498 4.60519 15.7542 4.45868 15.6099C4.31216 15.4657 4.11345 15.3846 3.90625 15.3846ZM3.90625 0H0.78125C0.57405 0 0.375336 0.0810437 0.228823 0.225302C0.08231 0.369561 0 0.565218 0 0.769231L0 3.84615C0 4.05017 0.08231 4.24582 0.228823 4.39008C0.375336 4.53434 0.57405 4.61538 0.78125 4.61538H3.90625C4.11345 4.61538 4.31216 4.53434 4.45868 4.39008C4.60519 4.24582 4.6875 4.05017 4.6875 3.84615V0.769231C4.6875 0.565218 4.60519 0.369561 4.45868 0.225302C4.31216 0.0810437 4.11345 0 3.90625 0ZM3.90625 7.69231H0.78125C0.57405 7.69231 0.375336 7.77335 0.228823 7.91761C0.08231 8.06187 0 8.25753 0 8.46154L0 11.5385C0 11.7425 0.08231 11.9381 0.228823 12.0824C0.375336 12.2266 0.57405 12.3077 0.78125 12.3077H3.90625C4.11345 12.3077 4.31216 12.2266 4.45868 12.0824C4.60519 11.9381 4.6875 11.7425 4.6875 11.5385V8.46154C4.6875 8.25753 4.60519 8.06187 4.45868 7.91761C4.31216 7.77335 4.11345 7.69231 3.90625 7.69231ZM24.2188 16.1538H8.59375C8.38655 16.1538 8.18784 16.2349 8.04132 16.3791C7.89481 16.5234 7.8125 16.7191 7.8125 16.9231V18.4615C7.8125 18.6656 7.89481 18.8612 8.04132 19.0055C8.18784 19.1497 8.38655 19.2308 8.59375 19.2308H24.2188C24.426 19.2308 24.6247 19.1497 24.7712 19.0055C24.9177 18.8612 25 18.6656 25 18.4615V16.9231C25 16.7191 24.9177 16.5234 24.7712 16.3791C24.6247 16.2349 24.426 16.1538 24.2188 16.1538ZM24.2188 0.769231H8.59375C8.38655 0.769231 8.18784 0.850275 8.04132 0.994533C7.89481 1.13879 7.8125 1.33445 7.8125 1.53846V3.07692C7.8125 3.28094 7.89481 3.47659 8.04132 3.62085C8.18784 3.76511 8.38655 3.84615 8.59375 3.84615H24.2188C24.426 3.84615 24.6247 3.76511 24.7712 3.62085C24.9177 3.47659 25 3.28094 25 3.07692V1.53846C25 1.33445 24.9177 1.13879 24.7712 0.994533C24.6247 0.850275 24.426 0.769231 24.2188 0.769231ZM24.2188 8.46154H8.59375C8.38655 8.46154 8.18784 8.54258 8.04132 8.68684C7.89481 8.8311 7.8125 9.02676 7.8125 9.23077V10.7692C7.8125 10.9732 7.89481 11.1689 8.04132 11.3132C8.18784 11.4574 8.38655 11.5385 8.59375 11.5385H24.2188C24.426 11.5385 24.6247 11.4574 24.7712 11.3132C24.9177 11.1689 25 10.9732 25 10.7692V9.23077C25 9.02676 24.9177 8.8311 24.7712 8.68684C24.6247 8.54258 24.426 8.46154 24.2188 8.46154Z"
    fill="#1BB4D4" />
</svg>