<svg viewBox="0 0 270 25">
  <path
    d="M262.329 13.28C264.761 13.6 266.489 14.2187 267.513 15.136C268.537 16.032 269.049 17.3334 269.049 19.04C269.049 20.7254 268.441 22.0267 267.225 22.944C266.009 23.8614 264.217 24.32 261.849 24.32C260.099 24.32 258.339 24.1494 256.569 23.808C256.057 23.7014 255.63 23.4347 255.289 23.008C254.969 22.5814 254.809 22.0907 254.809 21.536V20.704C254.809 20.256 254.99 19.904 255.353 19.648C255.715 19.392 256.11 19.3174 256.537 19.424C258.137 19.808 259.641 20 261.049 20C262.222 20 262.809 19.6587 262.809 18.976C262.809 18.656 262.713 18.4214 262.521 18.272C262.329 18.1227 261.945 18.0054 261.369 17.92C259.001 17.536 257.283 16.8747 256.217 15.936C255.171 14.9974 254.649 13.7387 254.649 12.16C254.649 10.5387 255.267 9.28004 256.505 8.38404C257.763 7.48804 259.651 7.04004 262.169 7.04004C263.833 7.04004 265.369 7.14671 266.777 7.36004C267.31 7.44537 267.737 7.69071 268.057 8.09604C268.398 8.50137 268.569 8.97071 268.569 9.50404V10.176C268.569 10.624 268.377 10.9974 267.993 11.296C267.63 11.5734 267.225 11.6694 266.777 11.584C265.475 11.328 264.142 11.2 262.777 11.2C262.073 11.2 261.582 11.2747 261.305 11.424C261.027 11.5734 260.889 11.8187 260.889 12.16C260.889 12.8 261.369 13.1734 262.329 13.28Z"
    fill="white" />
  <path
    d="M248.5 19.616C248.97 19.5307 249.386 19.6267 249.748 19.904C250.111 20.1814 250.292 20.5547 250.292 21.024V21.856C250.292 22.3894 250.122 22.8587 249.78 23.264C249.46 23.6694 249.034 23.9147 248.5 24C247.007 24.2134 245.738 24.32 244.692 24.32C241.855 24.32 239.679 23.5947 238.164 22.144C236.65 20.6934 235.892 18.5387 235.892 15.68C235.892 12.8854 236.618 10.752 238.068 9.28004C239.54 7.78671 241.642 7.04004 244.372 7.04004C245.418 7.04004 246.687 7.14671 248.18 7.36004C248.714 7.44537 249.14 7.69071 249.46 8.09604C249.802 8.50137 249.972 8.97071 249.972 9.50404V10.336C249.972 10.8054 249.791 11.1787 249.428 11.456C249.066 11.7334 248.65 11.8294 248.18 11.744C247.306 11.5947 246.41 11.52 245.492 11.52C244.404 11.52 243.594 11.8507 243.06 12.512C242.548 13.1734 242.292 14.2294 242.292 15.68C242.292 17.152 242.57 18.2187 243.124 18.88C243.7 19.52 244.596 19.84 245.812 19.84C246.73 19.84 247.626 19.7654 248.5 19.616Z"
    fill="white" />
  <path
    d="M222.245 19.168C222.651 19.8294 223.301 20.16 224.197 20.16C225.093 20.16 225.744 19.8294 226.15 19.168C226.555 18.4854 226.757 17.3227 226.757 15.68C226.757 14.0374 226.555 12.8854 226.15 12.224C225.744 11.5414 225.093 11.2 224.197 11.2C223.301 11.2 222.651 11.5414 222.245 12.224C221.84 12.8854 221.637 14.0374 221.637 15.68C221.637 17.3227 221.84 18.4854 222.245 19.168ZM217.829 9.34404C219.344 7.80804 221.467 7.04004 224.197 7.04004C226.928 7.04004 229.051 7.80804 230.566 9.34404C232.08 10.8587 232.837 12.9707 232.837 15.68C232.837 18.3894 232.08 20.512 230.566 22.048C229.051 23.5627 226.928 24.32 224.197 24.32C221.467 24.32 219.344 23.5627 217.829 22.048C216.315 20.512 215.557 18.3894 215.557 15.68C215.557 12.9707 216.315 10.8587 217.829 9.34404Z"
    fill="white" />
  <path
    d="M201.28 19.3603C203.093 19.3603 204.448 18.7843 205.344 17.6323C206.261 16.4803 206.72 14.603 206.72 12.0003C206.72 9.65365 206.261 7.94698 205.344 6.88031C204.448 5.81365 203.093 5.28031 201.28 5.28031C200.875 5.28031 200.48 5.31231 200.096 5.37631C199.925 5.41898 199.84 5.52564 199.84 5.69631V18.9123C199.84 19.1043 199.925 19.2216 200.096 19.2643C200.48 19.3283 200.875 19.3603 201.28 19.3603ZM200.64 0.320312C204.48 0.320312 207.467 1.35498 209.6 3.42431C211.733 5.47231 212.8 8.33098 212.8 12.0003C212.8 15.9896 211.723 19.0403 209.568 21.1523C207.435 23.2643 204.459 24.3203 200.64 24.3203C198.955 24.3203 197.205 24.235 195.392 24.0643C194.88 24.0216 194.453 23.7976 194.112 23.3923C193.771 22.987 193.6 22.5283 193.6 22.0163V2.62431C193.6 2.11231 193.771 1.65365 194.112 1.24831C194.453 0.842979 194.88 0.618979 195.392 0.576311C197.205 0.405645 198.955 0.320312 200.64 0.320312Z"
    fill="white" />
  <path
    d="M168.334 19.168C168.74 19.8294 169.39 20.16 170.286 20.16C171.182 20.16 171.833 19.8294 172.238 19.168C172.644 18.4854 172.846 17.3227 172.846 15.68C172.846 14.0374 172.644 12.8854 172.238 12.224C171.833 11.5414 171.182 11.2 170.286 11.2C169.39 11.2 168.74 11.5414 168.334 12.224C167.929 12.8854 167.726 14.0374 167.726 15.68C167.726 17.3227 167.929 18.4854 168.334 19.168ZM163.918 9.34404C165.433 7.80804 167.556 7.04004 170.286 7.04004C173.017 7.04004 175.14 7.80804 176.654 9.34404C178.169 10.8587 178.926 12.9707 178.926 15.68C178.926 18.3894 178.169 20.512 176.654 22.048C175.14 23.5627 173.017 24.32 170.286 24.32C167.556 24.32 165.433 23.5627 163.918 22.048C162.404 20.512 161.646 18.3894 161.646 15.68C161.646 12.9707 162.404 10.8587 163.918 9.34404Z"
    fill="white" />
  <path
    d="M154.663 15.584L159.814 22.528C160.028 22.8267 160.049 23.1467 159.879 23.488C159.708 23.8293 159.441 24 159.079 24H155.846C154.609 24 153.649 23.5093 152.967 22.528L149.799 17.952C149.799 17.9307 149.777 17.92 149.734 17.92C149.713 17.92 149.702 17.9307 149.702 17.952V22.176C149.702 22.6667 149.521 23.0933 149.159 23.456C148.796 23.8187 148.369 24 147.879 24H145.447C144.956 24 144.529 23.8187 144.167 23.456C143.804 23.0933 143.622 22.6667 143.622 22.176V1.824C143.622 1.33333 143.804 0.906668 144.167 0.544001C144.529 0.181334 144.956 0 145.447 0H147.879C148.369 0 148.796 0.181334 149.159 0.544001C149.521 0.906668 149.702 1.33333 149.702 1.824V13.088C149.702 13.1093 149.713 13.12 149.734 13.12L149.799 13.088L152.935 8.832C153.639 7.85067 154.609 7.36 155.846 7.36H159.079C159.441 7.36 159.708 7.52 159.879 7.84C160.049 8.16 160.017 8.46933 159.783 8.768L154.663 15.136C154.556 15.2853 154.556 15.4347 154.663 15.584Z"
    fill="white" />
  <path
    d="M132.56 17.28V17.088C132.56 16.896 132.464 16.8 132.272 16.8H131.28C129.147 16.8 128.08 17.44 128.08 18.72C128.08 19.68 128.613 20.16 129.68 20.16C130.512 20.16 131.195 19.904 131.728 19.392C132.283 18.8587 132.56 18.1547 132.56 17.28ZM130.64 7.04004C133.456 7.04004 135.493 7.55204 136.752 8.57604C138.011 9.60004 138.64 11.2214 138.64 13.44V22.176C138.64 22.6667 138.459 23.0934 138.096 23.456C137.733 23.8187 137.307 24 136.816 24H134.8C134.288 24 133.851 23.8294 133.488 23.488C133.125 23.1254 132.933 22.688 132.912 22.176V21.92C132.912 21.8987 132.901 21.888 132.88 21.888C132.859 21.888 132.837 21.8987 132.816 21.92C131.451 23.52 129.765 24.32 127.76 24.32C126.267 24.32 125.04 23.8507 124.08 22.912C123.12 21.952 122.64 20.7147 122.64 19.2C122.64 15.36 125.52 13.44 131.28 13.44H132.272C132.464 13.44 132.56 13.344 132.56 13.152V13.12C132.56 11.84 131.813 11.2 130.32 11.2C129.04 11.2 127.387 11.392 125.36 11.776C124.912 11.8614 124.507 11.7654 124.144 11.488C123.781 11.1894 123.6 10.8054 123.6 10.336V9.82404C123.6 9.29071 123.76 8.81071 124.08 8.38404C124.421 7.95737 124.848 7.70137 125.36 7.61604C127.472 7.23204 129.232 7.04004 130.64 7.04004Z"
    fill="white" />
  <path
    d="M110.78 19.84C111.612 19.84 112.273 19.4987 112.764 18.816C113.255 18.112 113.5 17.0667 113.5 15.68C113.5 12.9067 112.593 11.52 110.78 11.52C110.055 11.52 109.415 11.7653 108.86 12.256C108.327 12.7467 108.06 13.3013 108.06 13.92V17.44C108.06 18.0587 108.327 18.6133 108.86 19.104C109.415 19.5947 110.055 19.84 110.78 19.84ZM113.02 7.04C114.983 7.04 116.54 7.78667 117.692 9.28C118.844 10.752 119.42 12.8853 119.42 15.68C119.42 18.4107 118.812 20.5333 117.596 22.048C116.401 23.5627 114.876 24.32 113.02 24.32C110.972 24.32 109.287 23.52 107.964 21.92C107.943 21.8987 107.921 21.888 107.9 21.888C107.879 21.888 107.868 21.8987 107.868 21.92V22.176C107.847 22.688 107.655 23.1253 107.292 23.488C106.929 23.8293 106.492 24 105.98 24H103.964C103.473 24 103.047 23.8187 102.684 23.456C102.321 23.0933 102.14 22.6667 102.14 22.176V1.824C102.14 1.33333 102.321 0.906668 102.684 0.544001C103.047 0.181334 103.473 0 103.964 0H106.396C106.887 0 107.313 0.181334 107.676 0.544001C108.039 0.906668 108.22 1.33333 108.22 1.824V8.928C108.22 8.94933 108.231 8.96 108.252 8.96C108.273 8.96 108.295 8.94933 108.316 8.928C109.745 7.66933 111.313 7.04 113.02 7.04Z"
    fill="white" />
  <path
    d="M86.8165 9.44004C88.1391 7.84004 89.7711 7.04004 91.7125 7.04004C93.6538 7.04004 95.0405 7.5947 95.8725 8.70404C96.7258 9.81337 97.1525 11.712 97.1525 14.4V22.176C97.1525 22.6667 96.9711 23.0934 96.6085 23.456C96.2458 23.8187 95.8191 24 95.3285 24H93.0565C92.5658 24 92.1391 23.8187 91.7765 23.456C91.4138 23.0934 91.2325 22.6667 91.2325 22.176V14.4C91.2325 13.4187 91.0938 12.7467 90.8165 12.384C90.5391 12.0214 90.0378 11.84 89.3125 11.84C88.7151 11.84 88.1605 12.0747 87.6485 12.544C87.1578 13.0134 86.9125 13.5254 86.9125 14.08V22.176C86.9125 22.6667 86.7311 23.0934 86.3685 23.456C86.0058 23.8187 85.5791 24 85.0885 24H82.6565C82.1658 24 81.7391 23.8187 81.3765 23.456C81.0138 23.0934 80.8325 22.6667 80.8325 22.176V9.18404C80.8325 8.69337 81.0138 8.26671 81.3765 7.90404C81.7391 7.54137 82.1658 7.36004 82.6565 7.36004H84.8325C85.3445 7.36004 85.7818 7.54137 86.1445 7.90404C86.5071 8.24537 86.6991 8.67204 86.7205 9.18404V9.44004C86.7205 9.46137 86.7311 9.47204 86.7525 9.47204C86.7951 9.47204 86.8165 9.46137 86.8165 9.44004Z"
    fill="white" />
  <path
    d="M69.93 17.28V17.088C69.93 16.896 69.834 16.8 69.642 16.8H68.65C66.5167 16.8 65.45 17.44 65.45 18.72C65.45 19.68 65.9833 20.16 67.05 20.16C67.882 20.16 68.5647 19.904 69.098 19.392C69.6527 18.8587 69.93 18.1547 69.93 17.28ZM68.01 7.04004C70.826 7.04004 72.8633 7.55204 74.122 8.57604C75.3807 9.60004 76.01 11.2214 76.01 13.44V22.176C76.01 22.6667 75.8287 23.0934 75.466 23.456C75.1033 23.8187 74.6767 24 74.186 24H72.17C71.658 24 71.2207 23.8294 70.858 23.488C70.4953 23.1254 70.3033 22.688 70.282 22.176V21.92C70.282 21.8987 70.2713 21.888 70.25 21.888C70.2287 21.888 70.2073 21.8987 70.186 21.92C68.8207 23.52 67.1353 24.32 65.13 24.32C63.6367 24.32 62.41 23.8507 61.45 22.912C60.49 21.952 60.01 20.7147 60.01 19.2C60.01 15.36 62.89 13.44 68.65 13.44H69.642C69.834 13.44 69.93 13.344 69.93 13.152V13.12C69.93 11.84 69.1833 11.2 67.69 11.2C66.41 11.2 64.7567 11.392 62.73 11.776C62.282 11.8614 61.8767 11.7654 61.514 11.488C61.1513 11.1894 60.97 10.8054 60.97 10.336V9.82404C60.97 9.29071 61.13 8.81071 61.45 8.38404C61.7913 7.95737 62.218 7.70137 62.73 7.61604C64.842 7.23204 66.602 7.04004 68.01 7.04004Z"
    fill="white" />
  <path
    d="M52.2375 15.584L57.3895 22.528C57.6028 22.8267 57.6242 23.1467 57.4535 23.488C57.2828 23.8293 57.0162 24 56.6535 24H53.4215C52.1842 24 51.2242 23.5093 50.5415 22.528L47.3735 17.952C47.3735 17.9307 47.3522 17.92 47.3095 17.92C47.2882 17.92 47.2775 17.9307 47.2775 17.952V22.176C47.2775 22.6667 47.0962 23.0933 46.7335 23.456C46.3708 23.8187 45.9442 24 45.4535 24H43.0215C42.5308 24 42.1042 23.8187 41.7415 23.456C41.3788 23.0933 41.1975 22.6667 41.1975 22.176V1.824C41.1975 1.33333 41.3788 0.906668 41.7415 0.544001C42.1042 0.181334 42.5308 0 43.0215 0H45.4535C45.9442 0 46.3708 0.181334 46.7335 0.544001C47.0962 0.906668 47.2775 1.33333 47.2775 1.824V13.088C47.2775 13.1093 47.2882 13.12 47.3095 13.12L47.3735 13.088L50.5095 8.832C51.2135 7.85067 52.1842 7.36 53.4215 7.36H56.6535C57.0162 7.36 57.2828 7.52 57.4535 7.84C57.6242 8.16 57.5922 8.46933 57.3575 8.768L52.2375 15.136C52.1308 15.2853 52.1308 15.4347 52.2375 15.584Z"
    fill="white" />
  <path
    d="M33.5747 7.36C34.0654 7.36 34.4921 7.54133 34.8547 7.904C35.2174 8.26667 35.3987 8.69333 35.3987 9.184V22.176C35.3987 22.6667 35.2174 23.0933 34.8547 23.456C34.4921 23.8187 34.0654 24 33.5747 24H30.8227C30.3321 24 29.9054 23.8187 29.5427 23.456C29.1801 23.0933 28.9987 22.6667 28.9987 22.176V9.184C28.9987 8.69333 29.1801 8.26667 29.5427 7.904C29.9054 7.54133 30.3321 7.36 30.8227 7.36H33.5747ZM33.5747 0C34.0654 0 34.4921 0.181334 34.8547 0.544001C35.2174 0.906668 35.3987 1.33333 35.3987 1.824V2.656C35.3987 3.14667 35.2174 3.57333 34.8547 3.936C34.4921 4.29867 34.0654 4.48 33.5747 4.48H30.8227C30.3321 4.48 29.9054 4.29867 29.5427 3.936C29.1801 3.57333 28.9987 3.14667 28.9987 2.656V1.824C28.9987 1.33333 29.1801 0.906668 29.5427 0.544001C29.9054 0.181334 30.3321 0 30.8227 0H33.5747Z"
    fill="white" />
  <path
    d="M21.216 0.639648C21.7067 0.639648 22.1333 0.820981 22.496 1.18365C22.8587 1.54631 23.04 1.97298 23.04 2.46365V22.1756C23.04 22.6663 22.8587 23.093 22.496 23.4557C22.1333 23.8183 21.7067 23.9996 21.216 23.9996H18.88C18.3893 23.9996 17.9627 23.8183 17.6 23.4557C17.2373 23.093 17.056 22.6663 17.056 22.1756V11.2316C17.056 11.2103 17.0453 11.1996 17.024 11.1996C17.0027 11.1996 16.992 11.2103 16.992 11.2316L14.656 17.5036C14.464 18.0156 14.144 18.4316 13.696 18.7516C13.248 19.0503 12.7467 19.1996 12.192 19.1996H10.72C10.1653 19.1996 9.664 19.0503 9.216 18.7516C8.768 18.4316 8.448 18.0156 8.256 17.5036L5.92 11.2316C5.92 11.2103 5.90933 11.1996 5.888 11.1996C5.86667 11.1996 5.856 11.2103 5.856 11.2316V22.1756C5.856 22.6663 5.67467 23.093 5.312 23.4557C4.94933 23.8183 4.52267 23.9996 4.032 23.9996H1.824C1.33333 23.9996 0.906667 23.8183 0.544 23.4557C0.181333 23.093 0 22.6663 0 22.1756V2.46365C0 1.97298 0.181333 1.54631 0.544 1.18365C0.906667 0.820981 1.33333 0.639648 1.824 0.639648H4.672C5.22667 0.639648 5.728 0.799648 6.176 1.11965C6.624 1.41831 6.93333 1.82365 7.104 2.33565L11.424 14.3676C11.424 14.389 11.4347 14.3996 11.456 14.3996C11.4773 14.3996 11.488 14.389 11.488 14.3676L15.808 2.33565C15.9787 1.82365 16.288 1.41831 16.736 1.11965C17.184 0.799648 17.6853 0.639648 18.24 0.639648H21.216Z"
    fill="white" />
</svg>